G04 #@! TF.GenerationSoftware,KiCad,Pcbnew,(6.0.10)*
G04 #@! TF.CreationDate,2023-02-17T11:11:42-03:00*
G04 #@! TF.ProjectId,TimeInterval_FrontEnd,54696d65-496e-4746-9572-76616c5f4672,rev?*
G04 #@! TF.SameCoordinates,Original*
G04 #@! TF.FileFunction,Legend,Bot*
G04 #@! TF.FilePolarity,Positive*
%FSLAX46Y46*%
G04 Gerber Fmt 4.6, Leading zero omitted, Abs format (unit mm)*
G04 Created by KiCad (PCBNEW (6.0.10)) date 2023-02-17 11:11:42*
%MOMM*%
%LPD*%
G01*
G04 APERTURE LIST*
%ADD10C,0.100000*%
G04 APERTURE END LIST*
D10*
X174552714Y-106331785D02*
X174124142Y-106331785D01*
X174338428Y-107081785D02*
X174338428Y-106331785D01*
X173874142Y-107081785D02*
X173874142Y-106581785D01*
X173874142Y-106331785D02*
X173909857Y-106367500D01*
X173874142Y-106403214D01*
X173838428Y-106367500D01*
X173874142Y-106331785D01*
X173874142Y-106403214D01*
X173517000Y-107081785D02*
X173517000Y-106581785D01*
X173517000Y-106653214D02*
X173481285Y-106617500D01*
X173409857Y-106581785D01*
X173302714Y-106581785D01*
X173231285Y-106617500D01*
X173195571Y-106688928D01*
X173195571Y-107081785D01*
X173195571Y-106688928D02*
X173159857Y-106617500D01*
X173088428Y-106581785D01*
X172981285Y-106581785D01*
X172909857Y-106617500D01*
X172874142Y-106688928D01*
X172874142Y-107081785D01*
X172231285Y-107046071D02*
X172302714Y-107081785D01*
X172445571Y-107081785D01*
X172517000Y-107046071D01*
X172552714Y-106974642D01*
X172552714Y-106688928D01*
X172517000Y-106617500D01*
X172445571Y-106581785D01*
X172302714Y-106581785D01*
X172231285Y-106617500D01*
X172195571Y-106688928D01*
X172195571Y-106760357D01*
X172552714Y-106831785D01*
X171874142Y-106796071D02*
X171302714Y-106796071D01*
X170945571Y-107081785D02*
X170945571Y-106331785D01*
X170588428Y-106581785D02*
X170588428Y-107081785D01*
X170588428Y-106653214D02*
X170552714Y-106617500D01*
X170481285Y-106581785D01*
X170374142Y-106581785D01*
X170302714Y-106617500D01*
X170267000Y-106688928D01*
X170267000Y-107081785D01*
X170017000Y-106581785D02*
X169731285Y-106581785D01*
X169909857Y-106331785D02*
X169909857Y-106974642D01*
X169874142Y-107046071D01*
X169802714Y-107081785D01*
X169731285Y-107081785D01*
X169195571Y-107046071D02*
X169267000Y-107081785D01*
X169409857Y-107081785D01*
X169481285Y-107046071D01*
X169517000Y-106974642D01*
X169517000Y-106688928D01*
X169481285Y-106617500D01*
X169409857Y-106581785D01*
X169267000Y-106581785D01*
X169195571Y-106617500D01*
X169159857Y-106688928D01*
X169159857Y-106760357D01*
X169517000Y-106831785D01*
X168838428Y-107081785D02*
X168838428Y-106581785D01*
X168838428Y-106724642D02*
X168802714Y-106653214D01*
X168767000Y-106617500D01*
X168695571Y-106581785D01*
X168624142Y-106581785D01*
X168445571Y-106581785D02*
X168267000Y-107081785D01*
X168088428Y-106581785D01*
X167481285Y-107081785D02*
X167481285Y-106688928D01*
X167517000Y-106617500D01*
X167588428Y-106581785D01*
X167731285Y-106581785D01*
X167802714Y-106617500D01*
X167481285Y-107046071D02*
X167552714Y-107081785D01*
X167731285Y-107081785D01*
X167802714Y-107046071D01*
X167838428Y-106974642D01*
X167838428Y-106903214D01*
X167802714Y-106831785D01*
X167731285Y-106796071D01*
X167552714Y-106796071D01*
X167481285Y-106760357D01*
X167017000Y-107081785D02*
X167088428Y-107046071D01*
X167124142Y-106974642D01*
X167124142Y-106331785D01*
X166267000Y-106581785D02*
X165981285Y-106581785D01*
X166159857Y-106331785D02*
X166159857Y-106974642D01*
X166124142Y-107046071D01*
X166052714Y-107081785D01*
X165981285Y-107081785D01*
X165445571Y-107046071D02*
X165517000Y-107081785D01*
X165659857Y-107081785D01*
X165731285Y-107046071D01*
X165767000Y-106974642D01*
X165767000Y-106688928D01*
X165731285Y-106617500D01*
X165659857Y-106581785D01*
X165517000Y-106581785D01*
X165445571Y-106617500D01*
X165409857Y-106688928D01*
X165409857Y-106760357D01*
X165767000Y-106831785D01*
X164767000Y-107046071D02*
X164838428Y-107081785D01*
X164981285Y-107081785D01*
X165052714Y-107046071D01*
X165088428Y-107010357D01*
X165124142Y-106938928D01*
X165124142Y-106724642D01*
X165088428Y-106653214D01*
X165052714Y-106617500D01*
X164981285Y-106581785D01*
X164838428Y-106581785D01*
X164767000Y-106617500D01*
X164445571Y-107081785D02*
X164445571Y-106331785D01*
X164124142Y-107081785D02*
X164124142Y-106688928D01*
X164159857Y-106617500D01*
X164231285Y-106581785D01*
X164338428Y-106581785D01*
X164409857Y-106617500D01*
X164445571Y-106653214D01*
X163767000Y-106581785D02*
X163767000Y-107081785D01*
X163767000Y-106653214D02*
X163731285Y-106617500D01*
X163659857Y-106581785D01*
X163552714Y-106581785D01*
X163481285Y-106617500D01*
X163445571Y-106688928D01*
X163445571Y-107081785D01*
X163088428Y-107081785D02*
X163088428Y-106581785D01*
X163088428Y-106331785D02*
X163124142Y-106367500D01*
X163088428Y-106403214D01*
X163052714Y-106367500D01*
X163088428Y-106331785D01*
X163088428Y-106403214D01*
X162409857Y-106581785D02*
X162409857Y-107331785D01*
X162409857Y-107046071D02*
X162481285Y-107081785D01*
X162624142Y-107081785D01*
X162695571Y-107046071D01*
X162731285Y-107010357D01*
X162767000Y-106938928D01*
X162767000Y-106724642D01*
X162731285Y-106653214D01*
X162695571Y-106617500D01*
X162624142Y-106581785D01*
X162481285Y-106581785D01*
X162409857Y-106617500D01*
X161731285Y-106581785D02*
X161731285Y-107081785D01*
X162052714Y-106581785D02*
X162052714Y-106974642D01*
X162017000Y-107046071D01*
X161945571Y-107081785D01*
X161838428Y-107081785D01*
X161767000Y-107046071D01*
X161731285Y-107010357D01*
X161088428Y-107046071D02*
X161159857Y-107081785D01*
X161302714Y-107081785D01*
X161374142Y-107046071D01*
X161409857Y-106974642D01*
X161409857Y-106688928D01*
X161374142Y-106617500D01*
X161302714Y-106581785D01*
X161159857Y-106581785D01*
X161088428Y-106617500D01*
X161052714Y-106688928D01*
X161052714Y-106760357D01*
X161409857Y-106831785D01*
X168052714Y-108003571D02*
X167481285Y-108003571D01*
X167767000Y-108289285D02*
X167767000Y-107717857D01*
X176606285Y-109103928D02*
X176856285Y-109103928D01*
X176856285Y-109496785D02*
X176856285Y-108746785D01*
X176499142Y-108746785D01*
X176213428Y-109496785D02*
X176213428Y-108996785D01*
X176213428Y-109139642D02*
X176177714Y-109068214D01*
X176142000Y-109032500D01*
X176070571Y-108996785D01*
X175999142Y-108996785D01*
X175463428Y-109461071D02*
X175534857Y-109496785D01*
X175677714Y-109496785D01*
X175749142Y-109461071D01*
X175784857Y-109389642D01*
X175784857Y-109103928D01*
X175749142Y-109032500D01*
X175677714Y-108996785D01*
X175534857Y-108996785D01*
X175463428Y-109032500D01*
X175427714Y-109103928D01*
X175427714Y-109175357D01*
X175784857Y-109246785D01*
X174784857Y-108996785D02*
X174784857Y-109746785D01*
X174784857Y-109461071D02*
X174856285Y-109496785D01*
X174999142Y-109496785D01*
X175070571Y-109461071D01*
X175106285Y-109425357D01*
X175142000Y-109353928D01*
X175142000Y-109139642D01*
X175106285Y-109068214D01*
X175070571Y-109032500D01*
X174999142Y-108996785D01*
X174856285Y-108996785D01*
X174784857Y-109032500D01*
X174106285Y-108996785D02*
X174106285Y-109496785D01*
X174427714Y-108996785D02*
X174427714Y-109389642D01*
X174392000Y-109461071D01*
X174320571Y-109496785D01*
X174213428Y-109496785D01*
X174142000Y-109461071D01*
X174106285Y-109425357D01*
X173463428Y-109461071D02*
X173534857Y-109496785D01*
X173677714Y-109496785D01*
X173749142Y-109461071D01*
X173784857Y-109389642D01*
X173784857Y-109103928D01*
X173749142Y-109032500D01*
X173677714Y-108996785D01*
X173534857Y-108996785D01*
X173463428Y-109032500D01*
X173427714Y-109103928D01*
X173427714Y-109175357D01*
X173784857Y-109246785D01*
X173106285Y-108996785D02*
X173106285Y-109496785D01*
X173106285Y-109068214D02*
X173070571Y-109032500D01*
X172999142Y-108996785D01*
X172892000Y-108996785D01*
X172820571Y-109032500D01*
X172784857Y-109103928D01*
X172784857Y-109496785D01*
X172106285Y-109461071D02*
X172177714Y-109496785D01*
X172320571Y-109496785D01*
X172392000Y-109461071D01*
X172427714Y-109425357D01*
X172463428Y-109353928D01*
X172463428Y-109139642D01*
X172427714Y-109068214D01*
X172392000Y-109032500D01*
X172320571Y-108996785D01*
X172177714Y-108996785D01*
X172106285Y-109032500D01*
X171856285Y-108996785D02*
X171677714Y-109496785D01*
X171499142Y-108996785D02*
X171677714Y-109496785D01*
X171749142Y-109675357D01*
X171784857Y-109711071D01*
X171856285Y-109746785D01*
X171213428Y-109211071D02*
X170642000Y-109211071D01*
X170392000Y-108996785D02*
X170106285Y-108996785D01*
X170284857Y-108746785D02*
X170284857Y-109389642D01*
X170249142Y-109461071D01*
X170177714Y-109496785D01*
X170106285Y-109496785D01*
X169749142Y-109496785D02*
X169820571Y-109461071D01*
X169856285Y-109425357D01*
X169892000Y-109353928D01*
X169892000Y-109139642D01*
X169856285Y-109068214D01*
X169820571Y-109032500D01*
X169749142Y-108996785D01*
X169642000Y-108996785D01*
X169570571Y-109032500D01*
X169534857Y-109068214D01*
X169499142Y-109139642D01*
X169499142Y-109353928D01*
X169534857Y-109425357D01*
X169570571Y-109461071D01*
X169642000Y-109496785D01*
X169749142Y-109496785D01*
X169177714Y-109211071D02*
X168606285Y-109211071D01*
X168356285Y-108746785D02*
X168106285Y-109496785D01*
X167856285Y-108746785D01*
X167499142Y-109496785D02*
X167570571Y-109461071D01*
X167606285Y-109425357D01*
X167642000Y-109353928D01*
X167642000Y-109139642D01*
X167606285Y-109068214D01*
X167570571Y-109032500D01*
X167499142Y-108996785D01*
X167392000Y-108996785D01*
X167320571Y-109032500D01*
X167284857Y-109068214D01*
X167249142Y-109139642D01*
X167249142Y-109353928D01*
X167284857Y-109425357D01*
X167320571Y-109461071D01*
X167392000Y-109496785D01*
X167499142Y-109496785D01*
X166820571Y-109496785D02*
X166892000Y-109461071D01*
X166927714Y-109389642D01*
X166927714Y-108746785D01*
X166642000Y-108996785D02*
X166356285Y-108996785D01*
X166534857Y-108746785D02*
X166534857Y-109389642D01*
X166499142Y-109461071D01*
X166427714Y-109496785D01*
X166356285Y-109496785D01*
X165784857Y-109496785D02*
X165784857Y-109103928D01*
X165820571Y-109032500D01*
X165892000Y-108996785D01*
X166034857Y-108996785D01*
X166106285Y-109032500D01*
X165784857Y-109461071D02*
X165856285Y-109496785D01*
X166034857Y-109496785D01*
X166106285Y-109461071D01*
X166142000Y-109389642D01*
X166142000Y-109318214D01*
X166106285Y-109246785D01*
X166034857Y-109211071D01*
X165856285Y-109211071D01*
X165784857Y-109175357D01*
X165106285Y-108996785D02*
X165106285Y-109603928D01*
X165142000Y-109675357D01*
X165177714Y-109711071D01*
X165249142Y-109746785D01*
X165356285Y-109746785D01*
X165427714Y-109711071D01*
X165106285Y-109461071D02*
X165177714Y-109496785D01*
X165320571Y-109496785D01*
X165392000Y-109461071D01*
X165427714Y-109425357D01*
X165463428Y-109353928D01*
X165463428Y-109139642D01*
X165427714Y-109068214D01*
X165392000Y-109032500D01*
X165320571Y-108996785D01*
X165177714Y-108996785D01*
X165106285Y-109032500D01*
X164463428Y-109461071D02*
X164534857Y-109496785D01*
X164677714Y-109496785D01*
X164749142Y-109461071D01*
X164784857Y-109389642D01*
X164784857Y-109103928D01*
X164749142Y-109032500D01*
X164677714Y-108996785D01*
X164534857Y-108996785D01*
X164463428Y-109032500D01*
X164427714Y-109103928D01*
X164427714Y-109175357D01*
X164784857Y-109246785D01*
X163213428Y-109461071D02*
X163284857Y-109496785D01*
X163427714Y-109496785D01*
X163499142Y-109461071D01*
X163534857Y-109425357D01*
X163570571Y-109353928D01*
X163570571Y-109139642D01*
X163534857Y-109068214D01*
X163499142Y-109032500D01*
X163427714Y-108996785D01*
X163284857Y-108996785D01*
X163213428Y-109032500D01*
X162784857Y-109496785D02*
X162856285Y-109461071D01*
X162892000Y-109425357D01*
X162927714Y-109353928D01*
X162927714Y-109139642D01*
X162892000Y-109068214D01*
X162856285Y-109032500D01*
X162784857Y-108996785D01*
X162677714Y-108996785D01*
X162606285Y-109032500D01*
X162570571Y-109068214D01*
X162534857Y-109139642D01*
X162534857Y-109353928D01*
X162570571Y-109425357D01*
X162606285Y-109461071D01*
X162677714Y-109496785D01*
X162784857Y-109496785D01*
X162213428Y-108996785D02*
X162213428Y-109496785D01*
X162213428Y-109068214D02*
X162177714Y-109032500D01*
X162106285Y-108996785D01*
X161999142Y-108996785D01*
X161927714Y-109032500D01*
X161892000Y-109103928D01*
X161892000Y-109496785D01*
X161606285Y-108996785D02*
X161427714Y-109496785D01*
X161249142Y-108996785D01*
X160677714Y-109461071D02*
X160749142Y-109496785D01*
X160892000Y-109496785D01*
X160963428Y-109461071D01*
X160999142Y-109389642D01*
X160999142Y-109103928D01*
X160963428Y-109032500D01*
X160892000Y-108996785D01*
X160749142Y-108996785D01*
X160677714Y-109032500D01*
X160642000Y-109103928D01*
X160642000Y-109175357D01*
X160999142Y-109246785D01*
X160320571Y-109496785D02*
X160320571Y-108996785D01*
X160320571Y-109139642D02*
X160284857Y-109068214D01*
X160249142Y-109032500D01*
X160177714Y-108996785D01*
X160106285Y-108996785D01*
X159963428Y-108996785D02*
X159677714Y-108996785D01*
X159856285Y-108746785D02*
X159856285Y-109389642D01*
X159820571Y-109461071D01*
X159749142Y-109496785D01*
X159677714Y-109496785D01*
X159142000Y-109461071D02*
X159213428Y-109496785D01*
X159356285Y-109496785D01*
X159427714Y-109461071D01*
X159463428Y-109389642D01*
X159463428Y-109103928D01*
X159427714Y-109032500D01*
X159356285Y-108996785D01*
X159213428Y-108996785D01*
X159142000Y-109032500D01*
X159106285Y-109103928D01*
X159106285Y-109175357D01*
X159463428Y-109246785D01*
X158784857Y-109496785D02*
X158784857Y-108996785D01*
X158784857Y-109139642D02*
X158749142Y-109068214D01*
X158713428Y-109032500D01*
X158642000Y-108996785D01*
X158570571Y-108996785D01*
X95983619Y-103773809D02*
X96650285Y-103773809D01*
X96555047Y-103773809D02*
X96602666Y-103726190D01*
X96650285Y-103630952D01*
X96650285Y-103488095D01*
X96602666Y-103392857D01*
X96507428Y-103345238D01*
X95983619Y-103345238D01*
X96507428Y-103345238D02*
X96602666Y-103297619D01*
X96650285Y-103202380D01*
X96650285Y-103059523D01*
X96602666Y-102964285D01*
X96507428Y-102916666D01*
X95983619Y-102916666D01*
X96650285Y-102011904D02*
X95983619Y-102011904D01*
X96650285Y-102440476D02*
X96126476Y-102440476D01*
X96031238Y-102392857D01*
X95983619Y-102297619D01*
X95983619Y-102154761D01*
X96031238Y-102059523D01*
X96078857Y-102011904D01*
X96650285Y-101678571D02*
X96650285Y-101297619D01*
X96983619Y-101535714D02*
X96126476Y-101535714D01*
X96031238Y-101488095D01*
X95983619Y-101392857D01*
X95983619Y-101297619D01*
X96650285Y-100535714D02*
X95983619Y-100535714D01*
X96650285Y-100964285D02*
X96126476Y-100964285D01*
X96031238Y-100916666D01*
X95983619Y-100821428D01*
X95983619Y-100678571D01*
X96031238Y-100583333D01*
X96078857Y-100535714D01*
X95983619Y-99630952D02*
X96507428Y-99630952D01*
X96602666Y-99678571D01*
X96650285Y-99773809D01*
X96650285Y-99964285D01*
X96602666Y-100059523D01*
X96031238Y-99630952D02*
X95983619Y-99726190D01*
X95983619Y-99964285D01*
X96031238Y-100059523D01*
X96126476Y-100107142D01*
X96221714Y-100107142D01*
X96316952Y-100059523D01*
X96364571Y-99964285D01*
X96364571Y-99726190D01*
X96412190Y-99630952D01*
X95983619Y-99011904D02*
X96031238Y-99107142D01*
X96126476Y-99154761D01*
X96983619Y-99154761D01*
X95983619Y-98630952D02*
X96650285Y-98630952D01*
X96983619Y-98630952D02*
X96936000Y-98678571D01*
X96888380Y-98630952D01*
X96936000Y-98583333D01*
X96983619Y-98630952D01*
X96888380Y-98630952D01*
X96031238Y-98202380D02*
X95983619Y-98107142D01*
X95983619Y-97916666D01*
X96031238Y-97821428D01*
X96126476Y-97773809D01*
X96174095Y-97773809D01*
X96269333Y-97821428D01*
X96316952Y-97916666D01*
X96316952Y-98059523D01*
X96364571Y-98154761D01*
X96459809Y-98202380D01*
X96507428Y-98202380D01*
X96602666Y-98154761D01*
X96650285Y-98059523D01*
X96650285Y-97916666D01*
X96602666Y-97821428D01*
X95983619Y-97345238D02*
X96650285Y-97345238D01*
X96555047Y-97345238D02*
X96602666Y-97297619D01*
X96650285Y-97202380D01*
X96650285Y-97059523D01*
X96602666Y-96964285D01*
X96507428Y-96916666D01*
X95983619Y-96916666D01*
X96507428Y-96916666D02*
X96602666Y-96869047D01*
X96650285Y-96773809D01*
X96650285Y-96630952D01*
X96602666Y-96535714D01*
X96507428Y-96488095D01*
X95983619Y-96488095D01*
X95983619Y-95250000D02*
X96650285Y-95250000D01*
X96983619Y-95250000D02*
X96936000Y-95297619D01*
X96888380Y-95250000D01*
X96936000Y-95202380D01*
X96983619Y-95250000D01*
X96888380Y-95250000D01*
X96031238Y-94821428D02*
X95983619Y-94726190D01*
X95983619Y-94535714D01*
X96031238Y-94440476D01*
X96126476Y-94392857D01*
X96174095Y-94392857D01*
X96269333Y-94440476D01*
X96316952Y-94535714D01*
X96316952Y-94678571D01*
X96364571Y-94773809D01*
X96459809Y-94821428D01*
X96507428Y-94821428D01*
X96602666Y-94773809D01*
X96650285Y-94678571D01*
X96650285Y-94535714D01*
X96602666Y-94440476D01*
X96650285Y-93202380D02*
X95650285Y-93202380D01*
X96602666Y-93202380D02*
X96650285Y-93107142D01*
X96650285Y-92916666D01*
X96602666Y-92821428D01*
X96555047Y-92773809D01*
X96459809Y-92726190D01*
X96174095Y-92726190D01*
X96078857Y-92773809D01*
X96031238Y-92821428D01*
X95983619Y-92916666D01*
X95983619Y-93107142D01*
X96031238Y-93202380D01*
X95983619Y-92154761D02*
X96031238Y-92250000D01*
X96078857Y-92297619D01*
X96174095Y-92345238D01*
X96459809Y-92345238D01*
X96555047Y-92297619D01*
X96602666Y-92250000D01*
X96650285Y-92154761D01*
X96650285Y-92011904D01*
X96602666Y-91916666D01*
X96555047Y-91869047D01*
X96459809Y-91821428D01*
X96174095Y-91821428D01*
X96078857Y-91869047D01*
X96031238Y-91916666D01*
X95983619Y-92011904D01*
X95983619Y-92154761D01*
X96031238Y-91440476D02*
X95983619Y-91345238D01*
X95983619Y-91154761D01*
X96031238Y-91059523D01*
X96126476Y-91011904D01*
X96174095Y-91011904D01*
X96269333Y-91059523D01*
X96316952Y-91154761D01*
X96316952Y-91297619D01*
X96364571Y-91392857D01*
X96459809Y-91440476D01*
X96507428Y-91440476D01*
X96602666Y-91392857D01*
X96650285Y-91297619D01*
X96650285Y-91154761D01*
X96602666Y-91059523D01*
X96031238Y-90630952D02*
X95983619Y-90535714D01*
X95983619Y-90345238D01*
X96031238Y-90250000D01*
X96126476Y-90202380D01*
X96174095Y-90202380D01*
X96269333Y-90250000D01*
X96316952Y-90345238D01*
X96316952Y-90488095D01*
X96364571Y-90583333D01*
X96459809Y-90630952D01*
X96507428Y-90630952D01*
X96602666Y-90583333D01*
X96650285Y-90488095D01*
X96650285Y-90345238D01*
X96602666Y-90250000D01*
X95983619Y-89773809D02*
X96650285Y-89773809D01*
X96983619Y-89773809D02*
X96936000Y-89821428D01*
X96888380Y-89773809D01*
X96936000Y-89726190D01*
X96983619Y-89773809D01*
X96888380Y-89773809D01*
X95983619Y-89297619D02*
X96983619Y-89297619D01*
X96602666Y-89297619D02*
X96650285Y-89202380D01*
X96650285Y-89011904D01*
X96602666Y-88916666D01*
X96555047Y-88869047D01*
X96459809Y-88821428D01*
X96174095Y-88821428D01*
X96078857Y-88869047D01*
X96031238Y-88916666D01*
X95983619Y-89011904D01*
X95983619Y-89202380D01*
X96031238Y-89297619D01*
X95983619Y-88250000D02*
X96031238Y-88345238D01*
X96126476Y-88392857D01*
X96983619Y-88392857D01*
X96031238Y-87488095D02*
X95983619Y-87583333D01*
X95983619Y-87773809D01*
X96031238Y-87869047D01*
X96126476Y-87916666D01*
X96507428Y-87916666D01*
X96602666Y-87869047D01*
X96650285Y-87773809D01*
X96650285Y-87583333D01*
X96602666Y-87488095D01*
X96507428Y-87440476D01*
X96412190Y-87440476D01*
X96316952Y-87916666D01*
X94373619Y-98535714D02*
X94897428Y-98535714D01*
X94992666Y-98583333D01*
X95040285Y-98678571D01*
X95040285Y-98869047D01*
X94992666Y-98964285D01*
X94421238Y-98535714D02*
X94373619Y-98630952D01*
X94373619Y-98869047D01*
X94421238Y-98964285D01*
X94516476Y-99011904D01*
X94611714Y-99011904D01*
X94706952Y-98964285D01*
X94754571Y-98869047D01*
X94754571Y-98630952D01*
X94802190Y-98535714D01*
X94373619Y-98059523D02*
X95040285Y-98059523D01*
X94945047Y-98059523D02*
X94992666Y-98011904D01*
X95040285Y-97916666D01*
X95040285Y-97773809D01*
X94992666Y-97678571D01*
X94897428Y-97630952D01*
X94373619Y-97630952D01*
X94897428Y-97630952D02*
X94992666Y-97583333D01*
X95040285Y-97488095D01*
X95040285Y-97345238D01*
X94992666Y-97250000D01*
X94897428Y-97202380D01*
X94373619Y-97202380D01*
X94373619Y-96583333D02*
X94421238Y-96678571D01*
X94468857Y-96726190D01*
X94564095Y-96773809D01*
X94849809Y-96773809D01*
X94945047Y-96726190D01*
X94992666Y-96678571D01*
X95040285Y-96583333D01*
X95040285Y-96440476D01*
X94992666Y-96345238D01*
X94945047Y-96297619D01*
X94849809Y-96250000D01*
X94564095Y-96250000D01*
X94468857Y-96297619D01*
X94421238Y-96345238D01*
X94373619Y-96440476D01*
X94373619Y-96583333D01*
X95040285Y-95821428D02*
X94373619Y-95821428D01*
X94945047Y-95821428D02*
X94992666Y-95773809D01*
X95040285Y-95678571D01*
X95040285Y-95535714D01*
X94992666Y-95440476D01*
X94897428Y-95392857D01*
X94373619Y-95392857D01*
X95040285Y-94488095D02*
X94230761Y-94488095D01*
X94135523Y-94535714D01*
X94087904Y-94583333D01*
X94040285Y-94678571D01*
X94040285Y-94821428D01*
X94087904Y-94916666D01*
X94421238Y-94488095D02*
X94373619Y-94583333D01*
X94373619Y-94773809D01*
X94421238Y-94869047D01*
X94468857Y-94916666D01*
X94564095Y-94964285D01*
X94849809Y-94964285D01*
X94945047Y-94916666D01*
X94992666Y-94869047D01*
X95040285Y-94773809D01*
X95040285Y-94583333D01*
X94992666Y-94488095D01*
X95040285Y-92821428D02*
X94373619Y-92821428D01*
X95040285Y-93250000D02*
X94516476Y-93250000D01*
X94421238Y-93202380D01*
X94373619Y-93107142D01*
X94373619Y-92964285D01*
X94421238Y-92869047D01*
X94468857Y-92821428D01*
X94421238Y-92392857D02*
X94373619Y-92297619D01*
X94373619Y-92107142D01*
X94421238Y-92011904D01*
X94516476Y-91964285D01*
X94564095Y-91964285D01*
X94659333Y-92011904D01*
X94706952Y-92107142D01*
X94706952Y-92250000D01*
X94754571Y-92345238D01*
X94849809Y-92392857D01*
X94897428Y-92392857D01*
X94992666Y-92345238D01*
X95040285Y-92250000D01*
X95040285Y-92107142D01*
X94992666Y-92011904D01*
X94468857Y-91535714D02*
X94421238Y-91488095D01*
X94373619Y-91535714D01*
X94421238Y-91583333D01*
X94468857Y-91535714D01*
X94373619Y-91535714D01*
X94754571Y-91535714D02*
X95326000Y-91583333D01*
X95373619Y-91535714D01*
X95326000Y-91488095D01*
X94754571Y-91535714D01*
X95373619Y-91535714D01*
M02*
