G04 #@! TF.GenerationSoftware,KiCad,Pcbnew,(6.0.10)*
G04 #@! TF.CreationDate,2023-02-17T11:11:42-03:00*
G04 #@! TF.ProjectId,TimeInterval_FrontEnd,54696d65-496e-4746-9572-76616c5f4672,rev?*
G04 #@! TF.SameCoordinates,Original*
G04 #@! TF.FileFunction,Soldermask,Bot*
G04 #@! TF.FilePolarity,Negative*
%FSLAX46Y46*%
G04 Gerber Fmt 4.6, Leading zero omitted, Abs format (unit mm)*
G04 Created by KiCad (PCBNEW (6.0.10)) date 2023-02-17 11:11:42*
%MOMM*%
%LPD*%
G01*
G04 APERTURE LIST*
G04 Aperture macros list*
%AMRoundRect*
0 Rectangle with rounded corners*
0 $1 Rounding radius*
0 $2 $3 $4 $5 $6 $7 $8 $9 X,Y pos of 4 corners*
0 Add a 4 corners polygon primitive as box body*
4,1,4,$2,$3,$4,$5,$6,$7,$8,$9,$2,$3,0*
0 Add four circle primitives for the rounded corners*
1,1,$1+$1,$2,$3*
1,1,$1+$1,$4,$5*
1,1,$1+$1,$6,$7*
1,1,$1+$1,$8,$9*
0 Add four rect primitives between the rounded corners*
20,1,$1+$1,$2,$3,$4,$5,0*
20,1,$1+$1,$4,$5,$6,$7,0*
20,1,$1+$1,$6,$7,$8,$9,0*
20,1,$1+$1,$8,$9,$2,$3,0*%
G04 Aperture macros list end*
%ADD10C,6.000000*%
%ADD11O,2.190000X1.740000*%
%ADD12RoundRect,0.250000X-0.845000X0.620000X-0.845000X-0.620000X0.845000X-0.620000X0.845000X0.620000X0*%
%ADD13C,1.440000*%
%ADD14R,1.700000X1.700000*%
%ADD15O,1.700000X1.700000*%
%ADD16RoundRect,0.250000X-0.620000X-0.845000X0.620000X-0.845000X0.620000X0.845000X-0.620000X0.845000X0*%
%ADD17O,1.740000X2.190000*%
%ADD18R,1.600000X1.600000*%
%ADD19O,1.600000X1.600000*%
%ADD20RoundRect,0.250000X0.845000X-0.620000X0.845000X0.620000X-0.845000X0.620000X-0.845000X-0.620000X0*%
G04 APERTURE END LIST*
D10*
X184912000Y-77343000D03*
X94996000Y-77343000D03*
X184912000Y-109093000D03*
X94996000Y-109220000D03*
D11*
X95758000Y-68072000D03*
D12*
X95758000Y-65532000D03*
D13*
X185157000Y-90307000D03*
X185157000Y-87767000D03*
X185157000Y-85227000D03*
D14*
X138938000Y-63749000D03*
D15*
X138938000Y-66289000D03*
D16*
X172212000Y-65044000D03*
D17*
X174752000Y-65044000D03*
D14*
X151384000Y-63749000D03*
D15*
X151384000Y-66289000D03*
D13*
X129286000Y-66294000D03*
X126746000Y-66294000D03*
X124206000Y-66294000D03*
D18*
X177273000Y-91557000D03*
D19*
X177273000Y-89017000D03*
X177273000Y-86477000D03*
X177273000Y-83937000D03*
X169653000Y-83937000D03*
X169653000Y-86477000D03*
X169653000Y-89017000D03*
X169653000Y-91557000D03*
D20*
X113812000Y-97790000D03*
D11*
X113812000Y-95250000D03*
D14*
X147320000Y-63749000D03*
D15*
X147320000Y-66289000D03*
D14*
X134620000Y-63749000D03*
D15*
X134620000Y-66289000D03*
X180086000Y-66289000D03*
D14*
X180086000Y-63749000D03*
D13*
X129286000Y-82296000D03*
X126746000Y-82296000D03*
X124206000Y-82296000D03*
D14*
X143256000Y-63744000D03*
D15*
X143256000Y-66284000D03*
D12*
X184883000Y-100203000D03*
D11*
X184883000Y-102743000D03*
D16*
X160274000Y-65064000D03*
D17*
X162814000Y-65064000D03*
X165354000Y-65064000D03*
X167894000Y-65064000D03*
M02*
