M48
; DRILL file {KiCad (6.0.10)} date Fri Feb 17 11:11:45 2023
; FORMAT={-:-/ absolute / metric / decimal}
; #@! TF.CreationDate,2023-02-17T11:11:45-03:00
; #@! TF.GenerationSoftware,Kicad,Pcbnew,(6.0.10)
; #@! TF.FileFunction,Plated,1,2,PTH
FMAT,2
METRIC
; #@! TA.AperFunction,Plated,PTH,ViaDrill
T1C0.400
; #@! TA.AperFunction,Plated,PTH,ComponentDrill
T2C0.800
; #@! TA.AperFunction,Plated,PTH,ComponentDrill
T3C1.000
; #@! TA.AperFunction,Plated,PTH,ComponentDrill
T4C1.190
; #@! TA.AperFunction,Plated,PTH,ComponentDrill
T5C3.000
%
G90
G05
T1
X109.22Y-85.344
X110.236Y-85.344
X110.363Y-66.294
X115.57Y-87.884
X117.856Y-74.422
X117.856Y-75.438
X117.856Y-81.915
X119.126Y-89.916
X119.634Y-96.52
X120.142Y-89.916
X121.92Y-73.152
X122.428Y-96.567
X122.936Y-73.152
X124.968Y-103.886
X129.54Y-98.044
X129.54Y-99.06
X132.334Y-75.438
X132.334Y-76.454
X132.588Y-71.628
X132.588Y-72.644
X132.842Y-106.045
X134.112Y-106.045
X135.382Y-106.045
X136.652Y-80.772
X136.652Y-106.045
X137.414Y-80.01
X137.922Y-106.045
X138.684Y-90.678
X138.938Y-98.044
X139.192Y-83.058
X139.192Y-106.045
X139.7Y-90.678
X140.462Y-106.045
X141.732Y-106.045
X143.002Y-83.312
X143.002Y-106.045
X143.51Y-80.518
X143.51Y-81.28
X144.272Y-106.045
X145.034Y-77.343
X145.542Y-106.045
X146.558Y-77.343
X146.812Y-106.045
X148.082Y-106.045
X149.352Y-106.045
X149.606Y-79.248
X149.733Y-73.406
X149.733Y-74.422
X150.622Y-106.045
X152.527Y-105.41
X153.416Y-104.521
X154.305Y-103.632
X155.194Y-102.743
X155.956Y-101.854
X156.718Y-101.092
X157.226Y-67.564
X157.48Y-70.319
X157.48Y-100.33
X158.242Y-99.568
X158.496Y-70.358
X159.004Y-98.806
X159.766Y-98.044
X159.893Y-86.614
X160.528Y-97.282
X161.036Y-85.979
X161.29Y-96.52
X162.052Y-95.758
X162.687Y-94.996
X162.814Y-92.583
X162.814Y-93.853
X167.513Y-78.613
X168.783Y-78.613
X171.695Y-78.613
X185.547Y-63.373
X185.547Y-64.389
X185.547Y-65.278
X185.547Y-66.167
T2
X124.206Y-66.294
X124.206Y-82.296
X126.746Y-66.294
X126.746Y-82.296
X129.286Y-66.294
X129.286Y-82.296
X169.653Y-83.937
X169.653Y-86.477
X169.653Y-89.017
X169.653Y-91.557
X177.273Y-83.937
X177.273Y-86.477
X177.273Y-89.017
X177.273Y-91.557
X185.157Y-85.227
X185.157Y-87.767
X185.157Y-90.307
T3
X134.62Y-63.749
X134.62Y-66.289
X138.938Y-63.749
X138.938Y-66.289
X143.256Y-63.744
X143.256Y-66.284
X147.32Y-63.749
X147.32Y-66.289
X151.384Y-63.749
X151.384Y-66.289
X180.086Y-63.749
X180.086Y-66.289
T4
X95.758Y-65.532
X95.758Y-68.072
X113.812Y-95.25
X113.812Y-97.79
X160.274Y-65.064
X162.814Y-65.064
X165.354Y-65.064
X167.894Y-65.064
X172.212Y-65.044
X174.752Y-65.044
X184.883Y-100.203
X184.883Y-102.743
T5
X94.996Y-77.343
X94.996Y-109.22
X184.912Y-77.343
X184.912Y-109.093
T0
M30
