G04 #@! TF.GenerationSoftware,KiCad,Pcbnew,(6.0.10)*
G04 #@! TF.CreationDate,2023-02-17T11:11:42-03:00*
G04 #@! TF.ProjectId,TimeInterval_FrontEnd,54696d65-496e-4746-9572-76616c5f4672,rev?*
G04 #@! TF.SameCoordinates,Original*
G04 #@! TF.FileFunction,Paste,Top*
G04 #@! TF.FilePolarity,Positive*
%FSLAX46Y46*%
G04 Gerber Fmt 4.6, Leading zero omitted, Abs format (unit mm)*
G04 Created by KiCad (PCBNEW (6.0.10)) date 2023-02-17 11:11:42*
%MOMM*%
%LPD*%
G01*
G04 APERTURE LIST*
G04 Aperture macros list*
%AMRoundRect*
0 Rectangle with rounded corners*
0 $1 Rounding radius*
0 $2 $3 $4 $5 $6 $7 $8 $9 X,Y pos of 4 corners*
0 Add a 4 corners polygon primitive as box body*
4,1,4,$2,$3,$4,$5,$6,$7,$8,$9,$2,$3,0*
0 Add four circle primitives for the rounded corners*
1,1,$1+$1,$2,$3*
1,1,$1+$1,$4,$5*
1,1,$1+$1,$6,$7*
1,1,$1+$1,$8,$9*
0 Add four rect primitives between the rounded corners*
20,1,$1+$1,$2,$3,$4,$5,0*
20,1,$1+$1,$4,$5,$6,$7,0*
20,1,$1+$1,$6,$7,$8,$9,0*
20,1,$1+$1,$8,$9,$2,$3,0*%
G04 Aperture macros list end*
%ADD10RoundRect,0.250000X-0.412500X-0.650000X0.412500X-0.650000X0.412500X0.650000X-0.412500X0.650000X0*%
%ADD11RoundRect,0.250000X0.400000X0.625000X-0.400000X0.625000X-0.400000X-0.625000X0.400000X-0.625000X0*%
%ADD12RoundRect,0.250000X-0.400000X-0.625000X0.400000X-0.625000X0.400000X0.625000X-0.400000X0.625000X0*%
%ADD13RoundRect,0.250000X-0.625000X0.400000X-0.625000X-0.400000X0.625000X-0.400000X0.625000X0.400000X0*%
%ADD14RoundRect,0.250000X0.625000X-0.400000X0.625000X0.400000X-0.625000X0.400000X-0.625000X-0.400000X0*%
%ADD15R,1.560000X0.650000*%
%ADD16RoundRect,0.100000X-0.100000X0.712500X-0.100000X-0.712500X0.100000X-0.712500X0.100000X0.712500X0*%
%ADD17RoundRect,0.150000X0.150000X-0.512500X0.150000X0.512500X-0.150000X0.512500X-0.150000X-0.512500X0*%
%ADD18RoundRect,0.150000X-0.512500X-0.150000X0.512500X-0.150000X0.512500X0.150000X-0.512500X0.150000X0*%
%ADD19RoundRect,0.250000X-0.650000X0.412500X-0.650000X-0.412500X0.650000X-0.412500X0.650000X0.412500X0*%
%ADD20RoundRect,0.250000X0.412500X0.650000X-0.412500X0.650000X-0.412500X-0.650000X0.412500X-0.650000X0*%
%ADD21RoundRect,0.250000X0.650000X-0.412500X0.650000X0.412500X-0.650000X0.412500X-0.650000X-0.412500X0*%
%ADD22RoundRect,0.250000X1.950000X1.000000X-1.950000X1.000000X-1.950000X-1.000000X1.950000X-1.000000X0*%
%ADD23RoundRect,0.150000X0.150000X-0.825000X0.150000X0.825000X-0.150000X0.825000X-0.150000X-0.825000X0*%
G04 APERTURE END LIST*
D10*
X180047500Y-69977000D03*
X183172500Y-69977000D03*
X180047500Y-72644000D03*
X183172500Y-72644000D03*
D11*
X139345000Y-88011000D03*
X136245000Y-88011000D03*
D12*
X163804000Y-70104000D03*
X166904000Y-70104000D03*
D13*
X160401000Y-71983000D03*
X160401000Y-75083000D03*
D14*
X137160000Y-97816000D03*
X137160000Y-94716000D03*
D15*
X128350000Y-93406000D03*
X128350000Y-92456000D03*
X128350000Y-91506000D03*
X125650000Y-91506000D03*
X125650000Y-92456000D03*
X125650000Y-93406000D03*
D16*
X140929000Y-80945500D03*
X140279000Y-80945500D03*
X139629000Y-80945500D03*
X138979000Y-80945500D03*
X138979000Y-85170500D03*
X139629000Y-85170500D03*
X140279000Y-85170500D03*
X140929000Y-85170500D03*
D12*
X163033000Y-80645000D03*
X166133000Y-80645000D03*
D10*
X112737500Y-74930000D03*
X115862500Y-74930000D03*
D11*
X130836000Y-71120000D03*
X127736000Y-71120000D03*
D13*
X146558000Y-72872000D03*
X146558000Y-75972000D03*
D14*
X143510000Y-75972000D03*
X143510000Y-72872000D03*
D12*
X119862000Y-103886000D03*
X122962000Y-103886000D03*
D17*
X131318000Y-100319000D03*
X132268000Y-100319000D03*
X133218000Y-100319000D03*
X133218000Y-98044000D03*
X131318000Y-98044000D03*
D18*
X149992500Y-70030000D03*
X149992500Y-70980000D03*
X149992500Y-71930000D03*
X152267500Y-71930000D03*
X152267500Y-70030000D03*
D15*
X127936000Y-73472000D03*
X127936000Y-74422000D03*
X127936000Y-75372000D03*
X130636000Y-75372000D03*
X130636000Y-74422000D03*
X130636000Y-73472000D03*
D19*
X154940000Y-70319500D03*
X154940000Y-73444500D03*
D11*
X146584000Y-70358000D03*
X143484000Y-70358000D03*
D14*
X118872000Y-86894000D03*
X118872000Y-83794000D03*
D19*
X136652000Y-82257500D03*
X136652000Y-85382500D03*
D12*
X112750000Y-91694000D03*
X115850000Y-91694000D03*
D20*
X115862500Y-85852000D03*
X112737500Y-85852000D03*
D14*
X163059000Y-88037000D03*
X163059000Y-84937000D03*
D21*
X117602000Y-68110500D03*
X117602000Y-64985500D03*
D14*
X181093000Y-92101000D03*
X181093000Y-89001000D03*
D21*
X134366000Y-75984500D03*
X134366000Y-72859500D03*
D14*
X119888000Y-101118000D03*
X119888000Y-98018000D03*
D17*
X144338000Y-85973500D03*
X145288000Y-85973500D03*
X146238000Y-85973500D03*
X146238000Y-83698500D03*
X145288000Y-83698500D03*
X144338000Y-83698500D03*
D10*
X159972500Y-90805000D03*
X163097500Y-90805000D03*
D14*
X140462000Y-75972000D03*
X140462000Y-72872000D03*
D13*
X166107000Y-84937000D03*
X166107000Y-88037000D03*
X166107000Y-90779000D03*
X166107000Y-93879000D03*
D11*
X125502000Y-77724000D03*
X122402000Y-77724000D03*
X130836000Y-77724000D03*
X127736000Y-77724000D03*
D19*
X119634000Y-91655500D03*
X119634000Y-94780500D03*
D12*
X125450000Y-88900000D03*
X128550000Y-88900000D03*
D15*
X112950000Y-77028000D03*
X112950000Y-77978000D03*
X112950000Y-78928000D03*
X115650000Y-78928000D03*
X115650000Y-77028000D03*
D21*
X103378000Y-79032500D03*
X103378000Y-75907500D03*
X137414000Y-75984500D03*
X137414000Y-72859500D03*
D13*
X100838000Y-64998000D03*
X100838000Y-68098000D03*
D20*
X172495500Y-94615000D03*
X169370500Y-94615000D03*
D19*
X122428000Y-91655500D03*
X122428000Y-94780500D03*
D10*
X144995500Y-81026000D03*
X148120500Y-81026000D03*
D11*
X128550000Y-86360000D03*
X125450000Y-86360000D03*
D21*
X112014000Y-68110500D03*
X112014000Y-64985500D03*
D14*
X181093000Y-86513000D03*
X181093000Y-83413000D03*
D18*
X106558500Y-64836000D03*
X106558500Y-65786000D03*
X106558500Y-66736000D03*
X108833500Y-66736000D03*
X108833500Y-64836000D03*
D14*
X122682000Y-101118000D03*
X122682000Y-98018000D03*
D11*
X113818000Y-71628000D03*
X110718000Y-71628000D03*
D22*
X178181000Y-101727000D03*
X169781000Y-101727000D03*
D23*
X105856000Y-79818000D03*
X107126000Y-79818000D03*
X108396000Y-79818000D03*
X109666000Y-79818000D03*
X109666000Y-74868000D03*
X108396000Y-74868000D03*
X107126000Y-74868000D03*
X105856000Y-74868000D03*
D12*
X126974000Y-103886000D03*
X130074000Y-103886000D03*
D10*
X168608500Y-80645000D03*
X171733500Y-80645000D03*
X130771500Y-95625500D03*
X133896500Y-95625500D03*
D21*
X103632000Y-68110500D03*
X103632000Y-64985500D03*
D12*
X174717000Y-94615000D03*
X177817000Y-94615000D03*
D10*
X122135500Y-71120000D03*
X125260500Y-71120000D03*
D21*
X114808000Y-68110500D03*
X114808000Y-64985500D03*
D12*
X125450000Y-95758000D03*
X128550000Y-95758000D03*
D15*
X115650000Y-83500000D03*
X115650000Y-82550000D03*
X115650000Y-81600000D03*
X112950000Y-81600000D03*
X112950000Y-83500000D03*
M02*
